<svg id="_x31__x2C_5" enable-background="new 0 0 24 24" height="512" viewBox="0 0 24 24" width="512" xmlns="http://www.w3.org/2000/svg"><path d="m23.25 4.5v.75h-22.5v-.75c0-1.55 1.26-2.81 2.81-2.81h16.88c1.55 0 2.81 1.26 2.81 2.81z" fill="#607d8b"/><path d="m23.25 5.25v15.87c0 .62-.5 1.13-1.12 1.13h-20.26c-.62 0-1.12-.51-1.12-1.13v-15.87z" fill="#fff"/><path d="m15.405 19.4h-6.808c-.605 0-1.096-.491-1.096-1.096v-3.904h-1.1c-.185 0-.352-.113-.419-.286-.068-.173-.022-.369.114-.494l5.6-4.9c.172-.158.438-.16.61 0l5.61 4.9c.136.126.182.322.114.494-.068.173-.234.287-.419.287h-1.11v3.904c0 .604-.492 1.095-1.096 1.095z" fill="#2196f3"/><path d="m21.25 23h-18.5c-1.517 0-2.75-1.233-2.75-2.75v-16.5c0-1.517 1.233-2.75 2.75-2.75h18.5c1.517 0 2.75 1.233 2.75 2.75v16.5c0 1.517-1.233 2.75-2.75 2.75zm-18.5-20.5c-.689 0-1.25.561-1.25 1.25v16.5c0 .689.561 1.25 1.25 1.25h18.5c.689 0 1.25-.561 1.25-1.25v-16.5c0-.689-.561-1.25-1.25-1.25z"/><path d="m23.25 6h-22.5c-.414 0-.75-.336-.75-.75s.336-.75.75-.75h22.5c.414 0 .75.336.75.75s-.336.75-.75.75z"/><path d="m15.532 20h-7.064c-.81 0-1.468-.658-1.468-1.467v-3.533h-1.25c-.313 0-.592-.193-.702-.485-.109-.292-.027-.622.207-.828l6.25-5.5c.283-.249.707-.25.99 0l6.261 5.5c.234.206.316.536.207.828-.11.292-.39.485-.702.485h-1.261v3.533c0 .809-.658 1.467-1.468 1.467zm-7.795-6.5h.013c.414 0 .75.336.75.75v4.283l7.032-.033-.032-4.25c0-.414.336-.75.75-.75h.021l-4.271-3.751z"/><path d="m15.75 12.647c-.414 0-.75-.336-.75-.75v-3.147c0-.414.336-.75.75-.75s.75.336.75.75v3.147c0 .414-.336.75-.75.75z"/></svg>