<?xml version="1.0" standalone="no"?>
<!DOCTYPE svg PUBLIC "-//W3C//DTD SVG 20010904//EN"
 "http://www.w3.org/TR/2001/REC-SVG-20010904/DTD/svg10.dtd">
<svg version="1.0" xmlns="http://www.w3.org/2000/svg"
 width="873.000000pt" height="784.000000pt" viewBox="0 0 873.000000 784.000000"
 preserveAspectRatio="xMidYMid meet">

<g transform="translate(0.000000,784.000000) scale(0.100000,-0.100000)"
fill="#000000" stroke="none">
<path d="M3525 7686 c-226 -44 -389 -116 -546 -242 -317 -253 -479 -619 -449
-1009 32 -418 263 -772 630 -969 51 -27 76 -46 64 -46 -112 -1 -480 -54 -624
-90 -261 -65 -467 -188 -611 -366 -151 -185 -716 -1177 -1037 -1819 -124 -250
-136 -287 -136 -430 0 -102 3 -128 22 -174 33 -78 101 -179 185 -273 180 -204
247 -282 247 -290 0 -4 -241 -317 -536 -694 -294 -378 -545 -706 -557 -728
-30 -57 -30 -172 -1 -236 30 -64 95 -125 160 -150 l55 -20 3372 2 3372 3 51
27 c65 34 118 96 140 161 20 61 15 167 -11 217 -24 47 -1232 1595 -1306 1675
-118 125 -216 154 -531 155 l-197 0 -5 33 c-3 17 -12 136 -21 262 -8 127 -17
256 -20 288 -3 31 -3 57 0 57 3 0 82 -79 177 -176 234 -239 304 -289 457 -329
192 -50 385 -19 549 88 168 110 254 239 527 792 134 272 383 795 427 895 77
177 128 332 128 393 0 17 33 66 99 148 55 68 98 126 95 131 -9 14 -896 733
-907 735 -7 1 -68 -68 -137 -154 -69 -86 -172 -207 -230 -267 -128 -135 -149
-171 -355 -589 -88 -179 -163 -326 -166 -326 -3 -1 -60 70 -127 158 -151 197
-347 425 -438 511 -156 147 -338 253 -529 310 -112 34 -322 67 -495 78 l-115
7 75 38 c155 79 322 232 430 395 218 327 256 719 109 1093 -66 166 -190 335
-335 457 -149 125 -318 211 -501 253 -115 26 -349 34 -448 15z m386 -385 c334
-86 573 -366 607 -711 19 -188 -22 -354 -125 -515 -158 -244 -447 -390 -736
-372 -283 18 -548 195 -672 452 -59 122 -76 188 -82 335 -7 154 13 248 82 385
118 238 345 403 610 444 82 13 227 5 316 -18z m262 -2241 c260 -15 382 -30
486 -56 105 -28 215 -75 288 -125 134 -92 336 -320 640 -723 150 -197 340
-426 386 -464 11 -9 40 45 153 281 225 472 433 887 479 957 65 96 125 130 232
130 41 0 68 -8 130 -40 148 -77 190 -157 160 -303 -24 -117 -63 -204 -485
-1087 -84 -176 -254 -494 -299 -561 -95 -142 -176 -195 -300 -193 -124 2 -141
15 -459 337 -153 155 -391 405 -528 555 -137 150 -251 271 -253 269 -7 -8 62
-1175 87 -1472 6 -60 10 -125 10 -142 l0 -33 -1082 1 -1083 0 -85 102 -85 101
-3 584 c-3 479 -6 582 -17 571 -13 -14 -605 -967 -608 -980 -2 -7 224 -277
632 -753 151 -176 282 -334 292 -350 29 -51 42 -139 30 -197 -33 -152 -152
-252 -301 -250 -95 1 -151 26 -228 104 -145 147 -1141 1282 -1162 1324 -41 83
-25 130 207 568 338 640 706 1285 839 1471 132 186 305 271 660 323 132 20
552 57 559 49 2 -1 25 -85 52 -185 l50 -182 -108 -828 c-59 -456 -108 -844
-110 -863 -4 -34 3 -42 183 -218 102 -100 190 -182 195 -182 5 0 65 62 134
138 69 75 149 162 177 193 l52 56 -146 839 c-79 461 -145 847 -146 859 -1 16
53 177 123 363 10 26 9 26 252 12z m1598 -2992 c26 -19 1168 -1470 1267 -1610
13 -17 -91 -18 -3292 -18 l-3305 0 515 660 515 660 318 -358 c175 -197 340
-377 367 -400 73 -62 213 -129 313 -149 72 -14 97 -15 180 -4 53 6 108 14 122
17 l25 6 -4 -62 c-6 -77 15 -135 69 -189 76 -76 201 -92 292 -37 23 14 146
122 272 241 179 168 234 215 250 210 11 -3 49 -8 85 -11 235 -22 466 147 514
378 23 112 4 256 -39 284 -32 21 -47 12 -168 -100 -54 -50 -101 -92 -106 -94
-4 -1 -45 39 -92 89 l-83 92 112 106 c111 104 122 123 102 161 -22 42 -193 71
-295 50 -141 -29 -285 -139 -343 -262 -43 -91 -56 -157 -49 -254 l5 -83 -35
-27 -34 -26 8 54 c4 29 8 96 7 148 -1 172 -60 314 -195 468 l-81 92 1374 -2
1375 -3 34 -27z m-1951 -196 c0 -5 -38 -43 -84 -86 -91 -82 -104 -103 -85
-138 19 -35 268 -296 290 -303 25 -8 36 -1 133 88 47 42 88 77 91 77 15 0 -8
-98 -37 -163 -35 -77 -89 -131 -170 -174 -47 -24 -63 -27 -148 -27 -52 0 -118
3 -145 8 l-51 8 -257 -240 c-272 -255 -293 -270 -360 -251 -61 17 -103 86 -90
150 7 38 29 61 302 315 l233 217 -8 61 c-21 150 5 251 88 341 53 59 81 77 163
106 52 19 135 25 135 11z"/>
<path d="M4050 7060 c-45 -45 -11 -107 76 -139 53 -20 114 -27 127 -15 16 16
-60 124 -108 154 -41 25 -70 25 -95 0z"/>
<path d="M3389 7038 c-44 -34 -109 -111 -109 -130 0 -6 23 -9 63 -6 75 4 155
41 177 81 13 24 13 30 0 55 -24 42 -75 42 -131 0z"/>
<path d="M3716 7018 c-21 -33 -138 -596 -131 -629 3 -14 17 -36 30 -49 32 -30
109 -31 139 -1 l20 21 -22 16 c-12 8 -22 26 -22 39 0 13 27 151 60 306 33 155
60 283 60 285 0 16 -39 34 -75 34 -35 0 -48 -5 -59 -22z"/>
<path d="M3240 6841 c-48 -15 -105 -49 -137 -83 -66 -68 -98 -195 -73 -288 17
-65 90 -133 160 -150 172 -41 338 83 356 268 8 79 -9 135 -58 188 -58 63 -164
90 -248 65z m146 -122 c67 -55 54 -189 -25 -263 -24 -23 -42 -30 -86 -34 -64
-5 -95 10 -121 60 -33 64 -2 187 58 230 53 37 134 41 174 7z"/>
<path d="M4055 6841 c-124 -32 -210 -138 -222 -271 -10 -105 35 -188 127 -236
52 -27 171 -25 227 4 66 34 110 78 140 140 24 48 28 70 28 138 0 72 -3 86 -30
129 -38 61 -99 95 -182 100 -32 2 -71 1 -88 -4z m141 -122 c49 -41 57 -128 19
-205 -32 -63 -79 -96 -140 -96 -79 0 -125 52 -125 140 0 48 43 135 78 158 51
33 130 35 168 3z"/>
<path d="M3252 6224 c-53 -37 -5 -161 91 -233 114 -86 253 -128 396 -118 190
12 336 103 377 232 15 46 15 54 1 87 -16 38 -50 56 -82 44 -8 -3 -26 -29 -39
-59 -30 -69 -90 -120 -164 -140 -91 -24 -145 -29 -218 -17 -127 20 -222 79
-266 165 -30 59 -54 69 -96 39z"/>
<path d="M5520 1050 c-9 -17 -2 -62 35 -228 30 -132 53 -212 63 -219 9 -8 45
-13 84 -13 76 0 89 11 103 85 l8 40 12 -48 c7 -26 19 -54 25 -62 18 -21 143
-21 164 0 14 14 18 14 40 0 33 -22 129 -22 162 0 14 9 29 26 34 38 7 17 9 18
9 5 1 -10 10 -27 21 -38 18 -18 33 -20 141 -20 66 0 129 5 140 10 15 9 19 22
19 70 0 72 -10 80 -99 80 l-61 0 0 148 c0 102 -4 152 -12 160 -7 7 -36 12 -64
12 -41 0 -56 -4 -66 -19 -14 -20 -14 -20 -26 0 -10 15 -24 19 -70 19 -32 0
-63 -5 -69 -11 -8 -8 -13 -8 -17 0 -9 15 -123 14 -132 0 -4 -6 -12 -32 -19
-58 -12 -45 -12 -46 -19 -16 -17 74 -24 80 -113 83 -91 3 -95 1 -108 -71 -9
-46 -13 -43 -28 19 l-12 49 -67 3 c-59 3 -68 1 -78 -18z m114 -47 c3 -10 17
-74 31 -142 14 -69 27 -126 29 -128 2 -2 16 62 32 142 l28 145 58 0 c52 0 58
-2 63 -22 3 -13 16 -77 30 -142 14 -66 27 -121 28 -123 2 -1 16 63 31 142 l28
145 37 0 37 0 -40 -190 -41 -190 -55 0 -56 0 -29 150 c-16 82 -31 148 -33 146
-2 -3 -14 -60 -28 -128 -36 -186 -26 -168 -89 -168 -30 0 -55 2 -55 4 0 2 -18
83 -40 180 -22 96 -40 180 -40 186 0 5 15 10 34 10 24 0 36 -5 40 -17z m586
-156 c0 -212 -3 -219 -88 -215 -50 3 -57 6 -60 26 -3 19 1 22 31 22 45 0 47 7
47 193 l0 147 35 0 35 0 0 -173z m160 13 l0 -160 80 0 80 0 0 -30 0 -30 -115
0 -115 0 0 190 0 190 35 0 35 0 0 -160z m-280 -19 c0 -93 -1 -99 -22 -104 -12
-4 -23 -5 -24 -4 -3 3 38 207 42 207 2 0 4 -44 4 -99z"/>
<path d="M7895 7009 c-11 -6 -112 -124 -225 -264 -133 -164 -212 -254 -224
-254 -34 -2 -84 39 -135 108 -95 128 -206 217 -310 247 -83 24 -196 17 -244
-16 -46 -31 -72 -86 -63 -133 7 -37 24 -55 157 -163 l75 -61 77 -205 c72 -194
107 -303 107 -338 0 -9 -20 -49 -45 -89 -25 -40 -45 -76 -45 -81 0 -6 589
-493 653 -539 16 -11 21 -10 40 7 12 11 82 50 156 87 73 36 152 78 173 93 24
15 137 145 277 317 303 372 284 345 283 399 -1 85 -61 146 -151 151 -25 2 -45
5 -44 7 10 18 24 66 29 97 4 28 0 49 -15 79 -26 52 -45 62 -116 62 l-57 0 8
28 c15 47 9 121 -13 150 -24 33 -97 72 -136 72 -24 0 -28 3 -22 18 4 9 10 41
13 70 4 44 1 58 -21 91 -40 60 -124 88 -182 60z"/>
</g>
</svg>
